<?xml version="1.0" standalone="no"?>
<!DOCTYPE svg PUBLIC "-//W3C//DTD SVG 20010904//EN"
 "http://www.w3.org/TR/2001/REC-SVG-20010904/DTD/svg10.dtd">
<svg version="1.0" xmlns="http://www.w3.org/2000/svg"
 width="256.000000pt" height="256.000000pt" viewBox="0 0 256.000000 256.000000"
 preserveAspectRatio="xMidYMid meet">

<g transform="translate(0.000000,256.000000) scale(0.100000,-0.100000)"
fill="#000000" stroke="none">
<path d="M1105 2489 c-135 -20 -316 -84 -431 -154 l-56 -33 106 -74 c59 -40
111 -74 116 -76 5 -2 14 16 20 40 7 24 14 46 17 50 5 9 123 -52 123 -62 0 -4
-12 -13 -27 -21 -16 -8 -31 -17 -34 -22 -3 -4 -17 14 -32 40 l-27 48 0 -51 c0
-41 5 -55 25 -74 16 -15 22 -27 16 -34 -6 -7 -4 -18 5 -30 8 -11 14 -24 14
-28 0 -16 -83 34 -129 77 -25 23 -64 54 -86 67 -69 43 -105 87 -136 166 -6 16
-6 21 2 17 6 -4 5 3 -3 14 -12 20 -13 17 -16 -31 -3 -49 -6 -55 -44 -83 -61
-45 -181 -176 -234 -256 -84 -127 -141 -260 -179 -419 -22 -92 -30 -297 -16
-403 36 -267 170 -529 365 -715 42 -39 76 -76 76 -80 0 -5 7 -9 15 -9 8 0 15
3 15 6 0 3 18 6 40 6 22 0 40 -3 40 -7 0 -5 -4 -8 -10 -8 -5 0 -11 -21 -12
-47 l-1 -48 -7 50 c-6 43 -7 45 -9 15 -1 -19 -4 -46 -8 -59 -5 -19 -3 -22 8
-16 14 9 -18 -34 -36 -47 -17 -13 -25 -9 -55 21 -21 21 -31 42 -36 80 -8 59
-24 69 -24 14 0 -31 -7 -44 -41 -75 -36 -33 -40 -40 -28 -54 19 -24 78 -51
150 -69 35 -9 68 -21 74 -26 5 -5 26 -9 46 -9 21 0 40 -4 43 -9 17 -27 1076
-31 1120 -4 6 4 31 10 56 14 182 26 329 83 322 124 -6 31 -28 44 -127 77 -73
23 -95 34 -93 47 4 22 50 44 60 28 4 -7 8 -8 8 -1 0 5 -6 16 -12 23 -11 12 -9
13 7 7 11 -4 16 -4 12 0 -4 5 26 42 67 83 226 230 346 521 346 841 0 333 -135
644 -377 870 l-78 73 -5 61 c-4 43 -8 55 -13 41 -40 -102 -85 -155 -176 -204
-35 -18 -88 -53 -118 -78 -30 -25 -57 -42 -60 -39 -13 13 32 58 94 95 38 21
78 50 91 64 13 14 45 40 71 58 27 17 54 42 61 53 8 14 9 17 1 10 -9 -8 -45 5
-139 52 -134 68 -250 106 -376 123 -89 13 -254 12 -341 0z m604 -311 c1 -30
-5 -41 -31 -62 -18 -14 -34 -24 -35 -22 -2 2 9 37 24 79 29 80 41 81 42 5z
m-587 -43 c6 -36 -20 -25 -36 15 -9 22 -16 44 -16 48 0 13 49 -46 52 -63z
m387 23 c-16 -30 -29 -20 -17 13 7 22 13 27 19 18 4 -7 3 -21 -2 -31z m-389
-118 c0 -5 7 -7 15 -4 9 4 46 -2 83 -11 66 -17 70 -17 159 4 113 26 191 28
209 4 17 -23 17 -33 0 -33 -21 0 -27 -28 -8 -39 10 -6 12 -11 4 -11 -8 0 -10
-8 -6 -25 4 -15 1 -32 -6 -40 -10 -12 -10 -15 1 -15 7 0 3 -10 -11 -25 -13
-14 -35 -25 -50 -25 -14 0 -32 -6 -39 -12 -10 -11 -12 -10 -9 1 2 9 -10 18
-34 24 l-37 9 15 36 c14 34 13 38 -2 49 -45 33 -93 7 -95 -49 0 -20 -1 -20 -8
-5 -4 10 -10 18 -15 17 -4 -1 -14 7 -21 17 -21 29 -28 8 -15 -45 7 -27 10 -57
6 -67 -5 -15 -14 -10 -56 35 -28 30 -50 59 -50 66 0 8 -9 18 -19 24 -26 14
-38 13 -23 -2 20 -20 14 -45 -14 -52 -19 -5 -23 -10 -15 -19 21 -26 -61 -15
-85 10 -12 13 -26 23 -33 23 -14 0 -14 24 -1 71 9 32 15 37 46 41 22 3 39 -1
46 -10 10 -12 13 -11 19 5 4 12 0 23 -12 31 -30 21 -22 32 21 32 22 0 40 -4
40 -10z m-171 -68 c-6 -18 -15 -32 -20 -32 -13 0 -11 8 8 41 21 36 26 32 12
-9z m773 -78 c27 -28 48 -54 48 -58 0 -4 -7 0 -16 8 -30 31 -44 20 -41 -31 2
-55 11 -65 44 -52 23 8 23 8 7 -16 -15 -24 -15 -25 3 -25 11 0 23 3 27 8 9 8
13 9 69 11 30 1 38 4 27 11 -33 21 4 21 67 1 83 -27 291 -134 248 -127 -194
28 -217 30 -325 18 -159 -18 -275 -54 -323 -100 -46 -44 -97 -140 -97 -182 0
-19 -5 -30 -14 -30 -16 0 -41 54 -31 69 3 6 1 11 -5 11 -7 0 -8 6 0 19 13 25
13 34 0 26 -5 -3 -10 -1 -10 4 0 7 -35 11 -92 12 l-93 1 64 15 c40 9 71 23 82
37 l18 21 1 -22 c0 -13 4 -23 9 -23 12 0 59 49 78 80 8 14 46 48 84 74 38 26
67 51 64 56 -3 5 10 19 28 32 19 12 39 31 44 43 5 11 8 14 6 7 -1 -7 2 -10 7
-7 17 10 11 29 -29 96 -21 35 -42 80 -45 99 l-7 35 28 -35 c15 -19 49 -58 75
-86z m298 31 l35 -13 -37 -1 c-43 -1 -70 8 -62 20 7 12 21 10 64 -6z m60 -25
c-8 -5 -22 -10 -30 -10 -13 0 -13 1 0 10 8 5 22 10 30 10 13 0 13 -1 0 -10z
m-1226 -39 c-17 -29 -42 -47 -51 -37 -2 2 10 20 28 40 37 43 49 41 23 -3z
m1171 19 c-3 -5 -12 -10 -18 -10 -7 0 -6 4 3 10 19 12 23 12 15 0z m-748 -22
c-3 -8 -6 -5 -6 6 -1 11 2 17 5 13 3 -3 4 -12 1 -19z m-329 -13 c-3 -3 -9 2
-12 12 -6 14 -5 15 5 6 7 -7 10 -15 7 -18z m403 -19 c-26 -25 -35 -17 -21 19
9 23 13 25 26 14 13 -11 13 -15 -5 -33z m-56 4 c3 -5 2 -10 -4 -10 -5 0 -13 5
-16 10 -3 6 -2 10 4 10 5 0 13 -4 16 -10z m-378 -118 c45 -31 108 -75 140 -98
32 -22 66 -43 76 -47 16 -6 16 -5 0 20 -10 16 -12 24 -5 19 7 -4 25 -34 40
-65 22 -47 25 -60 15 -70 -7 -7 -18 -9 -23 -6 -13 8 -13 -1 0 -26 8 -13 7 -19
0 -19 -6 0 -13 7 -17 16 -4 12 -8 13 -13 3 -9 -13 -28 4 -89 81 -39 49 -82 69
-209 99 -132 31 -264 37 -386 17 -54 -9 -101 -15 -103 -13 -2 2 29 18 69 35
93 39 280 85 316 78 17 -3 40 2 62 14 19 10 37 19 40 19 3 1 42 -25 87 -57z
m590 -6 c0 -8 -9 -17 -19 -19 -30 -8 -15 21 18 33 0 0 1 -6 1 -14z m-129 -67
c-6 -16 -12 -28 -15 -26 -7 7 8 57 18 57 4 0 3 -14 -3 -31z m92 -13 c0 -7 -7
-19 -15 -26 -13 -11 -15 -8 -15 14 0 16 5 26 15 26 8 0 15 -6 15 -14z m487
-157 c24 -9 241 -179 343 -269 l35 -31 -32 15 c-17 9 -44 14 -60 12 -15 -2
-19 -1 -9 1 12 3 -23 23 -100 57 -282 124 -364 161 -364 169 0 18 54 27 108
17 71 -13 71 -13 44 6 -12 8 -20 20 -17 25 8 12 17 11 52 -2z m-1397 -58 c0
-6 -31 -31 -70 -57 -97 -65 -110 -86 -19 -30 42 25 106 55 143 66 58 18 69 19
87 7 19 -14 15 -17 -76 -61 -54 -25 -99 -46 -101 -46 -2 0 -27 -11 -56 -24
-167 -75 -216 -96 -223 -96 -8 0 97 89 106 90 3 0 24 17 45 37 37 35 152 123
160 123 2 0 4 -4 4 -9z m1142 -183 c35 -17 88 -47 118 -65 l55 -34 -48 44
c-33 30 -43 44 -31 44 17 0 178 -146 170 -154 -5 -5 -345 177 -352 188 -11 18
27 8 88 -23z m-922 -72 c0 -2 -7 -7 -16 -10 -8 -3 -12 -2 -9 4 6 10 25 14 25
6z m-51 -30 c-2 -2 -15 -9 -29 -15 -24 -11 -24 -11 -6 3 16 13 49 24 35 12z
m895 -47 c22 -12 57 -34 77 -50 36 -29 64 -40 41 -17 -18 18 -15 33 4 17 20
-17 69 -113 52 -103 -7 4 -36 25 -63 45 -28 21 -86 57 -130 79 -44 23 -84 47
-90 52 -17 18 63 1 109 -23z m-974 6 c0 -2 -10 -9 -22 -15 -22 -11 -22 -10 -4
4 21 17 26 19 26 11z m790 -200 c-16 -177 -15 -174 -55 -172 -31 2 -40 17 -11
17 26 0 35 28 46 141 6 63 14 132 18 154 13 77 14 -5 2 -140z m-285 -10 c19
-146 26 -154 124 -157 l66 -2 -85 -5 c-51 -4 -90 -2 -97 4 -6 6 -16 59 -22
119 -20 202 -11 228 14 41z m175 90 c6 3 7 -1 4 -9 -7 -18 -23 -20 -44 -5 -11
8 -12 12 -2 16 6 2 12 12 13 21 0 12 3 10 10 -6 5 -13 13 -21 19 -17z m29
-117 c6 -18 7 -28 2 -23 -10 12 -25 55 -18 55 3 0 10 -15 16 -32z m-132 -10
c-3 -8 -6 -5 -6 6 -1 11 2 17 5 13 3 -3 4 -12 1 -19z m153 -62 c0 -7 -22 -10
-57 -9 -32 1 -66 2 -76 2 -10 1 -16 4 -13 9 7 12 146 10 146 -2z m-237 -193
c-24 -9 -13 -25 12 -20 17 3 24 0 22 -7 -2 -6 -16 -10 -31 -9 -29 2 -33 -16
-17 -75 9 -29 8 -32 -12 -32 -20 0 -22 4 -18 51 3 51 3 52 -22 47 -18 -4 -24
-1 -20 9 3 7 14 13 25 13 14 0 18 5 14 15 -4 12 2 15 27 14 18 0 26 -3 20 -6z
m100 -43 c-5 -17 0 -20 26 -20 33 0 39 8 19 28 -9 9 -5 12 21 12 29 0 31 -1
17 -16 -19 -18 -21 -75 -4 -92 9 -9 5 -12 -17 -11 -17 0 -24 3 -17 6 6 2 12
13 12 24 0 15 -7 19 -34 19 -19 0 -38 -4 -41 -10 -3 -5 -1 -10 4 -10 6 0 11
-7 11 -15 0 -8 -8 -15 -17 -15 -15 0 -17 8 -14 51 2 36 -1 54 -10 60 -10 6 -4
9 18 9 26 0 30 -3 26 -20z m201 14 c23 -9 20 -20 -6 -19 -31 0 -35 -18 -6 -27
21 -6 21 -6 -5 -7 -23 -1 -28 -5 -25 -23 2 -19 9 -23 35 -22 18 1 30 -2 27 -7
-3 -5 -22 -8 -42 -7 l-37 1 4 44 c2 25 -2 50 -9 58 -11 13 -8 15 18 15 17 0
37 -3 46 -6z m-574 -139 c10 -12 10 -15 -4 -15 -9 0 -16 -5 -16 -11 0 -8 -5
-8 -15 1 -12 10 -13 16 -4 26 15 18 24 18 39 -1z m178 -16 c-26 -15 -22 -39 6
-39 14 0 28 5 31 10 11 18 27 11 16 -7 -7 -14 -24 -18 -69 -19 -33 -1 -71 -4
-85 -8 -21 -5 -24 -3 -20 13 4 16 11 18 39 14 27 -4 34 -2 34 10 0 9 -8 21
-17 26 -14 8 -7 10 32 10 39 0 46 -2 33 -10z m-290 -47 c-12 -2 -18 -13 -18
-30 0 -69 -12 -103 -43 -118 -25 -13 -31 -14 -38 -2 -5 7 -9 9 -9 4 0 -5 -6
-3 -14 4 -8 6 -12 18 -9 26 4 12 8 11 20 -6 15 -21 34 -24 35 -5 0 6 4 15 8
20 5 6 12 30 16 53 5 35 4 43 -12 49 -15 6 -10 9 21 13 40 6 76 -1 43 -8z
m124 -1 c-6 -4 -13 -36 -15 -71 l-3 -65 -4 70 -4 70 -5 -80 c-5 -70 -9 -80
-26 -83 -16 -3 -18 -1 -7 9 15 16 17 149 2 149 -5 0 -10 3 -10 8 0 4 19 6 41
4 23 -3 37 -7 31 -11z m424 6 c4 -3 4 -13 0 -22 -5 -15 -7 -15 -22 -1 -25 26
-66 20 -96 -14 -14 -16 -28 -26 -32 -23 -6 7 -9 -17 -7 -52 2 -17 0 -17 -8 -5
-19 27 -12 64 22 117 7 12 131 12 143 0z m127 -4 c-7 -3 -13 -13 -13 -24 0
-16 7 -19 45 -19 48 0 62 19 28 39 -21 12 -21 12 30 14 40 2 50 -7 17 -16 -11
-3 -20 -13 -19 -24 0 -16 1 -16 9 2 7 16 9 17 9 3 1 -25 -16 -32 -81 -30 -36
1 -58 -2 -58 -9 0 -7 22 -10 60 -7 36 2 60 -1 60 -7 0 -6 -24 -9 -59 -7 l-60
4 -3 -39 c-2 -29 -8 -39 -23 -41 -16 -3 -18 -1 -7 9 7 8 12 40 12 81 0 47 -4
68 -12 69 -7 1 5 5 27 8 39 7 62 3 38 -6z m517 -13 c6 -8 10 -19 10 -25 0 -5
-5 -3 -10 5 -7 11 -10 4 -10 -27 0 -38 5 -45 47 -80 37 -31 54 -38 89 -38 23
0 40 -3 37 -7 -2 -5 -19 -8 -36 -8 -34 0 -63 16 -109 58 -15 14 -36 26 -45 27
-10 1 -29 7 -41 14 -28 15 -32 12 -41 -31 -5 -22 -13 -34 -26 -36 -18 -3 -19
-2 -2 8 13 9 17 25 17 80 0 40 -4 70 -10 70 -5 0 -10 3 -10 8 0 14 131 -3 140
-18z m-200 5 c0 -12 -4 -13 -18 -6 -9 5 -30 8 -45 8 -21 -2 -27 -7 -27 -24 0
-19 5 -23 34 -23 19 0 38 -5 42 -12 5 -8 -4 -9 -34 -4 l-42 6 0 -34 c0 -46 -9
-66 -28 -66 -12 0 -13 3 -4 12 16 16 16 145 0 151 -7 3 17 6 55 6 54 1 67 -2
67 -14z m-744 -141 c-3 -8 -13 -14 -23 -14 -17 1 -17 1 0 11 13 8 17 25 19 72
l2 62 3 -59 c2 -32 2 -65 -1 -72z m510 0 c-3 -8 -13 -14 -23 -14 -17 1 -17 1
0 11 9 5 18 20 18 32 1 18 2 19 6 4 3 -10 2 -25 -1 -33z m-272 3 c25 -1 41 5
51 19 14 19 14 19 15 -3 0 -18 -7 -23 -36 -29 -39 -7 -104 16 -104 37 0 7 8 5
19 -5 11 -10 36 -18 55 -19z m514 11 c-3 -8 -23 -14 -49 -14 -27 -1 -33 0 -14
3 17 2 34 9 40 14 13 13 27 11 23 -3z m-1023 -108 l-20 -9 20 -1 20 -2 -20 -6
-20 -5 20 -8 c19 -7 19 -8 -2 -8 -18 -1 -23 5 -23 24 0 19 5 25 23 24 21 0 21
-1 2 -9z m72 -7 c6 -15 7 -15 14 3 6 15 8 14 8 -10 1 -28 0 -28 -18 -12 -18
17 -19 17 -24 -1 -3 -12 -5 -9 -6 10 -1 30 16 37 26 10z m76 5 c4 -10 8 -9 16
2 9 12 11 9 11 -15 0 -21 -3 -26 -9 -16 -5 8 -16 11 -25 8 -11 -5 -16 -1 -16
13 0 22 16 27 23 8z m107 -27 c0 -3 -11 -6 -24 -6 -13 0 -23 2 -22 5 2 3 6 14
10 25 7 20 8 20 22 1 8 -11 14 -22 14 -25z m73 26 c3 12 5 9 6 -9 1 -31 -13
-37 -24 -10 -7 16 -8 15 -15 -3 -7 -17 -9 -16 -9 9 -1 28 0 28 18 12 18 -17
19 -17 24 1z m81 4 c4 -5 -4 -7 -16 -3 -18 4 -20 2 -16 -16 4 -12 2 -20 -3
-16 -5 3 -9 14 -9 25 0 20 34 28 44 10z m61 -1 l-20 -9 20 -1 20 -2 -20 -6
-20 -5 20 -8 c19 -7 19 -8 -2 -8 -18 -1 -23 5 -23 24 0 19 5 25 23 24 21 0 21
-1 2 -9z m90 -15 c0 -13 -8 -21 -22 -23 -19 -3 -23 1 -23 23 0 22 4 26 23 23
14 -2 22 -10 22 -23z m106 18 c-11 -5 -11 -7 0 -14 12 -7 11 -9 -1 -9 -13 0
-13 -1 0 -10 12 -8 11 -10 -7 -10 -18 0 -23 6 -23 25 0 19 5 25 23 24 12 0 16
-3 8 -6z m92 -5 c7 -21 -4 -38 -24 -38 -14 0 -19 7 -19 25 0 18 5 25 19 25 11
0 21 -6 24 -12z m44 -25 c-3 -10 -5 -4 -5 12 0 17 2 24 5 18 2 -7 2 -21 0 -30z
m67 29 c-7 -4 -14 -16 -16 -27 -3 -17 -5 -15 -10 8 -4 23 -2 27 16 27 13 0 16
-3 10 -8z m43 -29 c-3 -10 -5 -4 -5 12 0 17 2 24 5 18 2 -7 2 -21 0 -30z m86
25 c7 -21 -4 -38 -23 -38 -23 0 -34 16 -26 35 7 18 43 20 49 3z m70 4 c3 7 6
0 6 -16 1 -23 -2 -26 -13 -17 -11 9 -15 9 -19 -1 -3 -7 -6 0 -6 16 -1 23 2 26
13 17 11 -9 15 -9 19 1z m-1140 -19 c-7 -2 -21 -2 -30 0 -10 3 -4 5 12 5 17 0
24 -2 18 -5z m1240 0 c-7 -2 -21 -2 -30 0 -10 3 -4 5 12 5 17 0 24 -2 18 -5z"/>
<path d="M1098 1994 c-14 -13 -8 -29 15 -43 19 -12 20 -12 11 0 -7 8 -13 22
-15 32 -2 11 -7 15 -11 11z"/>
<path d="M1150 1924 c0 -7 9 -22 20 -35 10 -13 19 -19 20 -13 0 7 -9 22 -20
35 -10 13 -19 19 -20 13z"/>
<path d="M1658 1742 c-16 -10 -28 -20 -28 -25 0 -9 56 19 65 33 9 14 -5 11
-37 -8z"/>
<path d="M500 1670 c-11 -7 -6 -10 22 -10 20 0 40 5 43 10 8 13 -45 13 -65 0z"/>
<path d="M723 310 c0 -25 2 -35 4 -22 2 12 2 32 0 45 -2 12 -4 2 -4 -23z"/>
<path d="M1402 330 c0 -14 2 -19 5 -12 2 6 2 18 0 25 -3 6 -5 1 -5 -13z"/>
<path d="M1850 316 c0 -28 4 -36 18 -36 25 0 50 21 54 44 2 16 -4 20 -34 23
-38 4 -38 4 -38 -31z"/>
<path d="M1260 95 c0 -8 7 -15 15 -15 8 0 15 7 15 15 0 8 -7 15 -15 15 -8 0
-15 -7 -15 -15z"/>
<path d="M1460 95 c0 -9 5 -15 11 -13 6 2 11 8 11 13 0 5 -5 11 -11 13 -6 2
-11 -4 -11 -13z"/>
<path d="M1690 95 c0 -10 7 -15 18 -13 21 4 19 22 -2 26 -10 2 -16 -3 -16 -13z"/>
<path d="M470 370 c0 -5 14 -10 31 -10 17 0 28 4 24 10 -3 6 -17 10 -31 10
-13 0 -24 -4 -24 -10z"/>
<path d="M502 308 c-1 -27 2 -48 8 -48 5 0 7 -6 4 -14 -3 -8 5 -21 18 -30 20
-14 24 -14 37 -1 18 18 29 135 12 135 -6 0 -11 -11 -11 -25 0 -34 -26 -32 -38
3 -10 26 -11 25 -13 -18 l-2 -45 -7 45 -7 45 -1 -47z"/>
</g>
</svg>
